<svg width="240" height="240" viewBox="0 0 240 240" fill="none" xmlns="http://www.w3.org/2000/svg">
<g filter="url(#filter0_f_219_1019)">
<path d="M220 120C220 64.7715 175.228 20 120 20C64.7715 20 20 64.7715 20 120C20 175.228 64.7715 220 120 220C175.228 220 220 175.228 220 120ZM40 120C40 75.8172 75.8172 40 120 40C164.183 40 200 75.8172 200 120C200 164.183 164.183 200 120 200C75.8172 200 40 164.183 40 120Z" fill="url(#paint0_linear_219_1019)"/>
</g>
<defs>
<filter id="filter0_f_219_1019" x="0" y="0" width="240" height="240" filterUnits="userSpaceOnUse" color-interpolation-filters="sRGB">
<feFlood flood-opacity="0" result="BackgroundImageFix"/>
<feBlend mode="normal" in="SourceGraphic" in2="BackgroundImageFix" result="shape"/>
<feGaussianBlur stdDeviation="10" result="effect1_foregroundBlur_219_1019"/>
</filter>
<linearGradient id="paint0_linear_219_1019" x1="120" y1="220" x2="120" y2="20" gradientUnits="userSpaceOnUse">
<stop stop-color="#00C9FF"/>
<stop offset="1" stop-color="#92FE9D"/>
</linearGradient>
</defs>
</svg>
